<svg width="185" height="49" viewBox="0 0 185 49" fill="none" xmlns="http://www.w3.org/2000/svg">
<path d="M14.1019 31.2687C14.0358 31.2687 13.9477 31.2466 13.8375 31.2026C13.7494 31.1585 13.6503 31.1144 13.5401 31.0704L1.6424 22.9733C1.33394 22.753 1.09158 22.5437 0.915315 22.3454C0.761086 22.125 0.683971 21.8496 0.683971 21.5191V20.4946C0.683971 20.1641 0.761086 19.8997 0.915315 19.7014C1.09158 19.5031 1.33394 19.2938 1.6424 19.0735L13.5401 10.9765C13.6503 10.9104 13.7494 10.8553 13.8375 10.8112C13.9477 10.7671 14.0358 10.7451 14.1019 10.7451C14.3002 10.7451 14.4655 10.8112 14.5977 10.9434C14.7299 11.0756 14.796 11.2409 14.796 11.4391V14.9754C14.796 15.3279 14.6968 15.6033 14.4985 15.8016C14.3002 15.9779 14.0909 16.1431 13.8706 16.2974L6.66587 21.0234L13.8706 25.7825C14.0909 25.9147 14.3002 26.0689 14.4985 26.2452C14.6968 26.4214 14.796 26.6858 14.796 27.0384V30.6077C14.796 30.806 14.7299 30.9712 14.5977 31.1034C14.4655 31.2136 14.3002 31.2687 14.1019 31.2687Z" fill="#D77CE6"/>
<path d="M14.9469 17.7313C15.013 17.7313 15.1011 17.7534 15.2113 17.7974C15.2994 17.8415 15.3986 17.8856 15.5087 17.9296L27.4064 26.0267C27.7149 26.247 27.9573 26.4563 28.1335 26.6546C28.2877 26.875 28.3649 27.1504 28.3649 27.4809L28.3649 28.5054C28.3649 28.8359 28.2877 29.1003 28.1335 29.2986C27.9573 29.4969 27.7149 29.7062 27.4064 29.9265L15.5087 38.0235C15.3986 38.0896 15.2994 38.1447 15.2113 38.1888C15.1011 38.2329 15.013 38.2549 14.9469 38.2549C14.7486 38.2549 14.5833 38.1888 14.4512 38.0566C14.319 37.9244 14.2529 37.7591 14.2529 37.5609L14.2529 34.0246C14.2529 33.6721 14.352 33.3967 14.5503 33.1984C14.7486 33.0221 14.9579 32.8569 15.1782 32.7026L22.383 27.9766L15.1782 23.2175C14.9579 23.0853 14.7486 22.9311 14.5503 22.7548C14.352 22.5786 14.2529 22.3142 14.2529 21.9616L14.2529 18.3923C14.2529 18.194 14.319 18.0288 14.4512 17.8966C14.5834 17.7864 14.7486 17.7313 14.9469 17.7313Z" fill="#6C38CC"/>
<path d="M48.5651 15.8506C49.736 15.8506 50.7495 16.0458 51.6056 16.4361C52.4743 16.8264 53.1416 17.3803 53.6075 18.098C54.0733 18.8156 54.3062 19.6655 54.3062 20.6475C54.3062 21.6169 54.0733 22.4668 53.6075 23.197C53.1416 23.9146 52.4743 24.4686 51.6056 24.8589C50.7495 25.2366 49.736 25.4255 48.5651 25.4255H45.9023V29.0703H42.8429V15.8506H48.5651ZM48.3951 22.9326C49.3142 22.9326 50.013 22.7375 50.4914 22.3472C50.9698 21.9443 51.209 21.3777 51.209 20.6475C51.209 19.9047 50.9698 19.3381 50.4914 18.9478C50.013 18.5449 49.3142 18.3435 48.3951 18.3435H45.9023V22.9326H48.3951ZM66.7029 18.91V29.0703H63.9079V27.8617C63.5176 28.3023 63.0518 28.6422 62.5104 28.8815C61.969 29.1081 61.3836 29.2214 60.754 29.2214C59.4195 29.2214 58.3619 28.8374 57.5813 28.0694C56.8007 27.3014 56.4104 26.162 56.4104 24.6512V18.91H59.3565V24.2168C59.3565 25.8535 60.0427 26.6719 61.415 26.6719C62.1201 26.6719 62.6866 26.4453 63.1147 25.992C63.5428 25.5262 63.7568 24.84 63.7568 23.9335V18.91H66.7029ZM72.2462 20.2509C72.5987 19.7599 73.0708 19.3885 73.6626 19.1367C74.2669 18.8849 74.9593 18.759 75.7399 18.759V21.4784C75.4126 21.4533 75.1923 21.4407 75.0789 21.4407C74.2354 21.4407 73.5744 21.6799 73.096 22.1583C72.6176 22.6241 72.3784 23.3292 72.3784 24.2735V29.0703H69.4323V18.91H72.2462V20.2509ZM83.4972 18.759C84.4415 18.759 85.2976 18.9793 86.0656 19.42C86.8462 19.848 87.4568 20.4586 87.8975 21.2518C88.3381 22.0324 88.5584 22.9452 88.5584 23.9902C88.5584 25.0352 88.3381 25.9542 87.8975 26.7474C87.4568 27.528 86.8462 28.1386 86.0656 28.5793C85.2976 29.0074 84.4415 29.2214 83.4972 29.2214C82.2004 29.2214 81.1806 28.8122 80.4378 27.9939V32.7341H77.4917V18.91H80.3056V20.0809C81.0358 19.1996 82.0997 18.759 83.4972 18.759ZM82.9873 26.8041C83.7427 26.8041 84.3596 26.5523 84.838 26.0487C85.3291 25.5325 85.5746 24.8463 85.5746 23.9902C85.5746 23.134 85.3291 22.4542 84.838 21.9506C84.3596 21.4344 83.7427 21.1763 82.9873 21.1763C82.2319 21.1763 81.6087 21.4344 81.1177 21.9506C80.6392 22.4542 80.4 23.134 80.4 23.9902C80.4 24.8463 80.6392 25.5325 81.1177 26.0487C81.6087 26.5523 82.2319 26.8041 82.9873 26.8041ZM94.1755 29.2214C93.0298 29.2214 92.1359 28.9192 91.4938 28.3149C90.8517 27.698 90.5306 26.8293 90.5306 25.7087V15.0575H93.4767V25.5388C93.4767 25.9668 93.5837 26.3005 93.7978 26.5397C94.0244 26.7663 94.3391 26.8796 94.742 26.8796C94.8931 26.8796 95.0442 26.8607 95.1953 26.823C95.3589 26.7852 95.4849 26.7411 95.573 26.6908L95.7052 28.9759C95.2142 29.1396 94.7043 29.2214 94.1755 29.2214ZM102.085 26.8607C102.614 26.8607 103.08 26.7852 103.483 26.6341C103.898 26.4704 104.282 26.2186 104.635 25.8787L106.202 27.5784C105.245 28.6737 103.848 29.2214 102.009 29.2214C100.864 29.2214 99.8502 29.0011 98.9689 28.5604C98.0876 28.1072 97.4078 27.484 96.9293 26.6908C96.4509 25.8976 96.2117 24.9974 96.2117 23.9902C96.2117 22.9956 96.4446 22.1017 96.9104 21.3085C97.3889 20.5027 98.0373 19.8795 98.8556 19.4388C99.6866 18.9856 100.618 18.759 101.651 18.759C102.62 18.759 103.501 18.9667 104.295 19.3822C105.088 19.7851 105.717 20.3768 106.183 21.1574C106.662 21.9254 106.901 22.8382 106.901 23.8958L99.3844 25.3499C99.5984 25.8535 99.9321 26.2312 100.385 26.483C100.851 26.7348 101.418 26.8607 102.085 26.8607ZM101.651 20.9874C100.908 20.9874 100.303 21.2266 99.8377 21.7051C99.3718 22.1835 99.1263 22.8445 99.1011 23.688L104.049 22.7249C103.911 22.1961 103.627 21.7743 103.199 21.4596C102.771 21.1448 102.255 20.9874 101.651 20.9874ZM113.432 29.2969C112.387 29.2969 111.374 29.1584 110.392 28.8815C109.422 28.5919 108.642 28.2205 108.05 27.7672L109.089 25.4632C109.655 25.8787 110.329 26.2123 111.109 26.4641C111.89 26.716 112.671 26.8419 113.451 26.8419C114.32 26.8419 114.962 26.716 115.378 26.4641C115.793 26.1998 116.001 25.8535 116.001 25.4255C116.001 25.1107 115.875 24.8526 115.623 24.6512C115.384 24.4371 115.069 24.2672 114.679 24.1413C114.301 24.0154 113.785 23.8769 113.13 23.7258C112.123 23.4866 111.298 23.2474 110.656 23.0081C110.014 22.7689 109.46 22.3849 108.994 21.8561C108.541 21.3274 108.314 20.6223 108.314 19.741C108.314 18.973 108.522 18.2805 108.938 17.6636C109.353 17.0341 109.976 16.5368 110.807 16.1717C111.651 15.8066 112.677 15.624 113.886 15.624C114.729 15.624 115.554 15.7247 116.36 15.9262C117.165 16.1276 117.87 16.4172 118.475 16.7949L117.53 19.1178C116.309 18.4253 115.088 18.0791 113.867 18.0791C113.011 18.0791 112.375 18.2176 111.959 18.4946C111.556 18.7716 111.355 19.1367 111.355 19.5899C111.355 20.0432 111.588 20.3831 112.054 20.6097C112.532 20.8238 113.256 21.0378 114.226 21.2518C115.233 21.491 116.057 21.7302 116.7 21.9695C117.342 22.2087 117.889 22.5864 118.343 23.1026C118.808 23.6188 119.041 24.3175 119.041 25.1988C119.041 25.9542 118.827 26.6467 118.399 27.2762C117.984 27.8931 117.354 28.3841 116.511 28.7493C115.667 29.1144 114.641 29.2969 113.432 29.2969ZM125.834 29.2214C124.751 29.2214 123.776 29.0011 122.907 28.5604C122.051 28.1072 121.377 27.484 120.886 26.6908C120.408 25.8976 120.169 24.9974 120.169 23.9902C120.169 22.983 120.408 22.0828 120.886 21.2896C121.377 20.4964 122.051 19.8795 122.907 19.4388C123.776 18.9856 124.751 18.759 125.834 18.759C126.904 18.759 127.836 18.9856 128.629 19.4388C129.435 19.8795 130.02 20.5153 130.386 21.3462L128.1 22.5738C127.572 21.6421 126.81 21.1763 125.815 21.1763C125.047 21.1763 124.412 21.4281 123.908 21.9317C123.404 22.4353 123.153 23.1215 123.153 23.9902C123.153 24.8589 123.404 25.5451 123.908 26.0487C124.412 26.5523 125.047 26.8041 125.815 26.8041C126.823 26.8041 127.584 26.3382 128.1 25.4066L130.386 26.653C130.02 27.4588 129.435 28.0883 128.629 28.5415C127.836 28.9948 126.904 29.2214 125.834 29.2214ZM138.184 18.759C139.443 18.759 140.456 19.1367 141.224 19.8921C142.005 20.6475 142.395 21.768 142.395 23.2537V29.0703H139.449V23.7069C139.449 22.9011 139.273 22.3031 138.92 21.9128C138.568 21.5099 138.058 21.3085 137.39 21.3085C136.648 21.3085 136.056 21.5414 135.615 22.0072C135.175 22.4605 134.954 23.1403 134.954 24.0468V29.0703H132.008V15.0575H134.954V19.9676C135.344 19.5773 135.817 19.2815 136.371 19.08C136.925 18.866 137.529 18.759 138.184 18.759ZM150.011 29.2214C148.941 29.2214 147.977 29.0011 147.121 28.5604C146.278 28.1072 145.617 27.484 145.138 26.6908C144.66 25.8976 144.421 24.9974 144.421 23.9902C144.421 22.983 144.66 22.0828 145.138 21.2896C145.617 20.4964 146.278 19.8795 147.121 19.4388C147.977 18.9856 148.941 18.759 150.011 18.759C151.081 18.759 152.038 18.9856 152.881 19.4388C153.725 19.8795 154.386 20.4964 154.864 21.2896C155.343 22.0828 155.582 22.983 155.582 23.9902C155.582 24.9974 155.343 25.8976 154.864 26.6908C154.386 27.484 153.725 28.1072 152.881 28.5604C152.038 29.0011 151.081 29.2214 150.011 29.2214ZM150.011 26.8041C150.766 26.8041 151.383 26.5523 151.861 26.0487C152.353 25.5325 152.598 24.8463 152.598 23.9902C152.598 23.134 152.353 22.4542 151.861 21.9506C151.383 21.4344 150.766 21.1763 150.011 21.1763C149.255 21.1763 148.632 21.4344 148.141 21.9506C147.65 22.4542 147.405 23.134 147.405 23.9902C147.405 24.8463 147.65 25.5325 148.141 26.0487C148.632 26.5523 149.255 26.8041 150.011 26.8041ZM162.386 29.2214C161.316 29.2214 160.352 29.0011 159.496 28.5604C158.653 28.1072 157.992 27.484 157.513 26.6908C157.035 25.8976 156.796 24.9974 156.796 23.9902C156.796 22.983 157.035 22.0828 157.513 21.2896C157.992 20.4964 158.653 19.8795 159.496 19.4388C160.352 18.9856 161.316 18.759 162.386 18.759C163.456 18.759 164.413 18.9856 165.256 19.4388C166.1 19.8795 166.761 20.4964 167.239 21.2896C167.718 22.0828 167.957 22.983 167.957 23.9902C167.957 24.9974 167.718 25.8976 167.239 26.6908C166.761 27.484 166.1 28.1072 165.256 28.5604C164.413 29.0011 163.456 29.2214 162.386 29.2214ZM162.386 26.8041C163.141 26.8041 163.758 26.5523 164.236 26.0487C164.728 25.5325 164.973 24.8463 164.973 23.9902C164.973 23.134 164.728 22.4542 164.236 21.9506C163.758 21.4344 163.141 21.1763 162.386 21.1763C161.63 21.1763 161.007 21.4344 160.516 21.9506C160.025 22.4542 159.78 23.134 159.78 23.9902C159.78 24.8463 160.025 25.5325 160.516 26.0487C161.007 26.5523 161.63 26.8041 162.386 26.8041ZM173.571 29.2214C172.425 29.2214 171.531 28.9192 170.889 28.3149C170.247 27.698 169.926 26.8293 169.926 25.7087V15.0575H172.872V25.5388C172.872 25.9668 172.979 26.3005 173.193 26.5397C173.42 26.7663 173.735 26.8796 174.138 26.8796C174.289 26.8796 174.44 26.8607 174.591 26.823C174.754 26.7852 174.88 26.7411 174.968 26.6908L175.101 28.9759C174.61 29.1396 174.1 29.2214 173.571 29.2214Z" fill="#FAFAFA"/>
</svg>
